# xmcd
#
# Track frame offsets:
#	150
#	15745
#	35652
#	54823
#	69548
#	86004
#	102289
#	114447
#	130821
#	151908
#	167182
#	184327
#	199993
#	217457
#	234154
#	249483
#	266325
#	278002
#	292403
#	306290
#	323692
#
# Disc length: 4532 seconds
#
# Revision: 1
# Processed by: cddbd v1.5.2PL0 Copyright (c) Steve Scherf et al.
# Submitted via: audiograbber 1.83.01
#
DISCID=3611b215
DTITLE=Various Artist - ERG NCT 161
DYEAR=2007
DGENRE=Country
TTITLE0=Faith Hill - Red Umbrella
TTITLE1=Brad Paisley - Letter To Me
TTITLE2=Martina McBride - For These Times
TTITLE3=Gretchen Wilson - You Don't Have To Go Home
TTITLE4=Travis Tritt - Something Stronger Than Me
TTITLE5=Deric Ruttan ft Dierks Bentley - Good Time
TTITLE6=George Canyon - Ring Of Fire
TTITLE7=Shane Yellowbird - I Remember The Music
TTITLE8=Bon Jovi ft. Leann Rimes - Till We Ain't Strangers Anymore
TTITLE9=Hal Ketchum - One More Midnight
TTITLE10=Craig Morgan - International Harvester
TTITLE11=Heartland - Once A Woman Gets A Hold Of Your Heart
TTITLE12=Chuck Wicks - Stealing Cinderella
TTITLE13=Katie Armiger - 17 In Abilene
TTITLE14=Jennifer Hanson - Joyride
TTITLE15=Rodney Atkins - Cleaning This Gun (Come On In Boy)
TTITLE16=Hey Romeo - Second Hand News
TTITLE17=Kellie Pickler - Things That Never Cross A Man's Mind
TTITLE18=J.R. Vautour - You Can
TTITLE19=Crossin Dixon - Make You Mine
TTITLE20=Lee Brice - Happy Endings
EXTD=
EXTT0=
EXTT1=
EXTT2=
EXTT3=
EXTT4=
EXTT5=
EXTT6=
EXTT7=
EXTT8=
EXTT9=
EXTT10=
EXTT11=
EXTT12=
EXTT13=
EXTT14=
EXTT15=
EXTT16=
EXTT17=
EXTT18=
EXTT19=
EXTT20=
PLAYORDER=
